<?xml version="1.0" encoding="UTF-8"?>
<svg xmlns="http://www.w3.org/2000/svg" xmlns:xlink="http://www.w3.org/1999/xlink" width="32px" height="48px" viewBox="0 0 32 48" version="1.1">
<g id="surface1">
<path style=" stroke:none;fill-rule:nonzero;fill:rgb(50.196078%,27.843137%,97.254902%);fill-opacity:1;" d="M 30.996094 5.621094 C 30.582031 5.003906 29.976562 4.984375 29.285156 4.964844 C 29.207031 4.960938 29.128906 4.960938 29.046875 4.957031 C 28.988281 4.953125 28.917969 4.953125 28.847656 4.957031 C 28.566406 4.960938 28.238281 4.964844 28.074219 4.734375 C 27.882812 4.472656 27.902344 3.957031 27.917969 3.535156 C 27.921875 3.398438 27.925781 3.273438 27.925781 3.167969 C 27.894531 2.183594 27.839844 1.136719 27.449219 0.789062 C 27.15625 0.527344 26.273438 0.5625 25.460938 0.597656 C 25.199219 0.605469 24.941406 0.617188 24.714844 0.617188 L 7.417969 0.617188 C 7.070312 0.617188 6.707031 0.589844 6.347656 0.5625 C 5.648438 0.507812 4.972656 0.460938 4.496094 0.617188 C 3.800781 0.847656 3.753906 2.0625 3.707031 3.207031 L 3.707031 3.269531 C 3.667969 4.214844 3.425781 4.945312 2.628906 4.871094 C 1.703125 4.785156 0.78125 4.757812 0.363281 5.578125 C -0.136719 6.542969 -0.03125 7.554688 0.152344 9.363281 C 0.175781 9.625 0.207031 9.898438 0.230469 10.195312 L 31.265625 10.195312 C 31.285156 9.980469 31.300781 9.769531 31.320312 9.558594 C 31.464844 7.929688 31.59375 6.507812 30.996094 5.621094 Z M 30.996094 5.621094 "/>
<path style=" stroke:none;fill-rule:evenodd;fill:rgb(50.196078%,27.843137%,97.254902%);fill-opacity:1;" d="M 2.648438 11.988281 C 3.132812 18.375 3.613281 24.769531 4.09375 31.160156 L 4.09375 31.164062 C 4.355469 34.632812 4.613281 38.105469 4.875 41.574219 L 5.863281 41.574219 C 5.933594 42.117188 6.011719 42.789062 6.089844 43.496094 C 6.253906 44.929688 6.441406 46.515625 6.589844 47.488281 L 6.703125 47.488281 C 7.710938 47.128906 14.683594 44.230469 14.6875 32.679688 C 14.683594 32.648438 14.683594 32.613281 14.691406 32.582031 L 12.964844 32.582031 C 12.882812 32.582031 12.800781 32.554688 12.738281 32.503906 C 12.671875 32.457031 12.625 32.386719 12.601562 32.308594 C 12.433594 31.90625 12.300781 31.488281 12.199219 31.066406 C 11.183594 31.625 10.378906 32.472656 9.898438 33.5 C 9.441406 32.449219 9.378906 31.28125 9.730469 30.195312 C 10.078125 29.109375 10.808594 28.175781 11.800781 27.558594 C 11.8125 24.1875 13.109375 20.9375 15.445312 18.425781 L 15.480469 18.394531 C 15.550781 18.339844 15.636719 18.304688 15.726562 18.304688 C 15.777344 18.304688 15.832031 18.316406 15.878906 18.335938 C 15.925781 18.355469 15.96875 18.386719 16.003906 18.425781 C 18.363281 20.941406 19.652344 24.222656 19.613281 27.609375 C 20.625 28.210938 21.371094 29.144531 21.722656 30.238281 C 22.066406 31.332031 21.996094 32.507812 21.511719 33.546875 C 21.03125 32.523438 20.222656 31.671875 19.210938 31.117188 C 19.148438 31.527344 19.035156 31.929688 18.871094 32.3125 C 18.8125 32.476562 18.699219 32.582031 18.585938 32.582031 L 16.75 32.582031 C 16.753906 32.601562 16.753906 32.621094 16.753906 32.640625 L 16.753906 32.65625 C 16.757812 32.671875 16.757812 32.6875 16.753906 32.707031 C 16.78125 44.585938 24.195312 47.285156 24.820312 47.488281 L 25.035156 47.488281 C 25.089844 46.554688 25.265625 45.261719 25.4375 44.003906 C 25.558594 43.136719 25.675781 42.285156 25.746094 41.574219 L 26.75 41.574219 C 27.070312 37.203125 27.402344 32.847656 27.730469 28.488281 L 27.730469 28.484375 C 28.152344 22.910156 28.574219 17.335938 28.976562 11.734375 L 2.714844 11.734375 C 2.636719 11.75 2.644531 11.867188 2.648438 11.988281 Z M 15.726562 18.304688 L 15.722656 18.304688 L 15.730469 18.304688 Z M 15.726562 18.304688 "/>
</g>
</svg>
