<?xml version="1.0" encoding="UTF-8"?>
<svg xmlns="http://www.w3.org/2000/svg" xmlns:xlink="http://www.w3.org/1999/xlink" width="48px" height="73px" viewBox="0 0 48 72" version="1.1">
<g id="surface1">
<path style=" stroke:none;fill-rule:nonzero;fill:rgb(50.196078%,27.843137%,97.254902%);fill-opacity:1;" d="M 46.496094 8.050781 C 45.875 7.109375 44.964844 7.082031 43.929688 7.050781 C 43.8125 7.046875 43.691406 7.042969 43.570312 7.039062 C 43.480469 7.035156 43.378906 7.035156 43.273438 7.039062 C 42.851562 7.042969 42.359375 7.050781 42.113281 6.703125 C 41.824219 6.300781 41.851562 5.519531 41.875 4.875 C 41.882812 4.667969 41.890625 4.480469 41.886719 4.320312 C 41.84375 2.820312 41.761719 1.230469 41.175781 0.699219 C 40.734375 0.300781 39.410156 0.355469 38.191406 0.40625 C 37.796875 0.421875 37.414062 0.4375 37.074219 0.4375 L 11.128906 0.4375 C 10.605469 0.4375 10.058594 0.398438 9.519531 0.355469 C 8.472656 0.273438 7.460938 0.199219 6.742188 0.4375 C 5.699219 0.789062 5.628906 2.636719 5.5625 4.378906 L 5.558594 4.472656 C 5.5 5.910156 5.140625 7.019531 3.945312 6.90625 C 2.554688 6.777344 1.171875 6.738281 0.542969 7.980469 C -0.203125 9.449219 -0.046875 10.988281 0.226562 13.742188 C 0.265625 14.136719 0.308594 14.554688 0.347656 15.003906 L 46.898438 15.003906 C 46.925781 14.675781 46.953125 14.355469 46.980469 14.035156 C 47.199219 11.558594 47.390625 9.398438 46.496094 8.050781 Z M 46.496094 8.050781 "/>
<path style=" stroke:none;fill-rule:evenodd;fill:rgb(50.196078%,27.843137%,97.254902%);fill-opacity:1;" d="M 3.972656 17.734375 C 4.699219 27.445312 5.421875 37.167969 6.140625 46.886719 L 6.140625 46.894531 C 6.53125 52.171875 6.921875 57.453125 7.3125 62.726562 L 8.796875 62.726562 C 8.898438 63.554688 9.015625 64.574219 9.136719 65.648438 C 9.382812 67.832031 9.660156 70.242188 9.886719 71.722656 L 10.054688 71.722656 C 11.566406 71.175781 22.023438 66.765625 22.03125 49.203125 C 22.027344 49.152344 22.027344 49.101562 22.035156 49.050781 L 19.449219 49.050781 C 19.324219 49.050781 19.203125 49.007812 19.105469 48.933594 C 19.007812 48.859375 18.9375 48.753906 18.902344 48.636719 C 18.652344 48.023438 18.449219 47.390625 18.296875 46.746094 C 16.777344 47.59375 15.570312 48.886719 14.847656 50.445312 C 14.160156 48.851562 14.070312 47.074219 14.59375 45.421875 C 15.117188 43.769531 16.214844 42.351562 17.703125 41.410156 C 17.71875 36.285156 19.664062 31.34375 23.167969 27.523438 L 23.222656 27.476562 C 23.324219 27.390625 23.453125 27.339844 23.589844 27.339844 C 23.667969 27.339844 23.746094 27.355469 23.816406 27.386719 C 23.886719 27.417969 23.953125 27.464844 24.003906 27.523438 C 27.546875 31.347656 29.480469 36.335938 29.421875 41.492188 C 30.9375 42.40625 32.058594 43.824219 32.582031 45.488281 C 33.101562 47.148438 32.992188 48.9375 32.265625 50.519531 C 31.546875 48.960938 30.335938 47.667969 28.816406 46.824219 C 28.722656 47.449219 28.550781 48.058594 28.304688 48.644531 C 28.21875 48.890625 28.050781 49.050781 27.878906 49.050781 L 25.125 49.050781 C 25.128906 49.082031 25.132812 49.113281 25.132812 49.140625 L 25.132812 49.164062 C 25.136719 49.1875 25.136719 49.214844 25.132812 49.242188 C 25.171875 67.308594 36.292969 71.410156 37.230469 71.722656 L 37.550781 71.722656 C 37.632812 70.300781 37.898438 68.335938 38.15625 66.421875 C 38.335938 65.101562 38.511719 63.808594 38.621094 62.726562 L 40.125 62.726562 C 40.605469 56.082031 41.101562 49.453125 41.59375 42.824219 L 41.59375 42.820312 L 41.597656 42.820312 C 42.226562 34.339844 42.859375 25.863281 43.464844 17.34375 L 4.070312 17.34375 C 3.957031 17.367188 3.964844 17.550781 3.972656 17.734375 Z M 23.589844 27.339844 L 23.585938 27.339844 L 23.59375 27.339844 Z M 23.589844 27.339844 "/>
</g>
</svg>
