<?xml version="1.0" encoding="UTF-8"?>
<svg xmlns="http://www.w3.org/2000/svg" xmlns:xlink="http://www.w3.org/1999/xlink" width="32px" height="48px" viewBox="0 0 28 42" version="1.1">
<g id="surface1">
<path style=" stroke:none;fill-rule:nonzero;fill:rgb(50.196078%,27.843137%,97.254902%);fill-opacity:1;" d="M 27.121094 4.917969 C 26.757812 4.378906 26.230469 4.359375 25.625 4.34375 C 25.554688 4.339844 25.488281 4.339844 25.417969 4.335938 C 25.363281 4.335938 25.304688 4.335938 25.242188 4.335938 C 24.996094 4.339844 24.707031 4.34375 24.566406 4.140625 C 24.398438 3.914062 24.414062 3.460938 24.429688 3.09375 C 24.433594 2.972656 24.433594 2.863281 24.433594 2.773438 C 24.40625 1.910156 24.359375 0.996094 24.019531 0.691406 C 23.761719 0.460938 22.988281 0.492188 22.277344 0.523438 C 22.050781 0.53125 21.824219 0.539062 21.625 0.539062 L 6.492188 0.539062 C 6.1875 0.539062 5.867188 0.515625 5.554688 0.492188 C 4.941406 0.445312 4.351562 0.402344 3.933594 0.539062 C 3.324219 0.742188 3.285156 1.804688 3.242188 2.804688 L 3.242188 2.859375 C 3.210938 3.6875 2.996094 4.328125 2.300781 4.261719 C 1.492188 4.1875 0.683594 4.164062 0.316406 4.882812 C -0.121094 5.726562 -0.0273438 6.609375 0.132812 8.191406 C 0.152344 8.421875 0.179688 8.660156 0.203125 8.921875 L 27.355469 8.921875 C 27.375 8.734375 27.386719 8.546875 27.40625 8.363281 C 27.53125 6.9375 27.644531 5.695312 27.121094 4.917969 Z M 27.121094 4.917969 "/>
<path style=" stroke:none;fill-rule:evenodd;fill:rgb(50.196078%,27.843137%,97.254902%);fill-opacity:1;" d="M 2.316406 10.488281 C 2.742188 16.078125 3.160156 21.671875 3.582031 27.265625 L 3.582031 27.269531 C 3.8125 30.304688 4.035156 33.34375 4.265625 36.378906 L 5.128906 36.378906 C 5.191406 36.851562 5.261719 37.441406 5.328125 38.058594 C 5.472656 39.3125 5.636719 40.703125 5.765625 41.550781 L 5.867188 41.550781 C 6.746094 41.238281 12.847656 38.703125 12.851562 28.59375 C 12.847656 28.566406 12.847656 28.535156 12.855469 28.507812 L 11.34375 28.507812 C 11.273438 28.507812 11.199219 28.484375 11.144531 28.441406 C 11.085938 28.398438 11.046875 28.339844 11.027344 28.269531 C 10.878906 27.917969 10.761719 27.550781 10.675781 27.183594 C 9.785156 27.671875 9.082031 28.414062 8.660156 29.3125 C 8.261719 28.394531 8.207031 27.371094 8.515625 26.421875 C 8.816406 25.472656 9.457031 24.652344 10.324219 24.113281 C 10.335938 21.164062 11.46875 18.320312 13.515625 16.121094 L 13.546875 16.09375 C 13.605469 16.046875 13.683594 16.015625 13.761719 16.015625 C 13.804688 16.015625 13.851562 16.027344 13.894531 16.042969 C 13.933594 16.0625 13.972656 16.089844 14.003906 16.121094 C 16.066406 18.324219 17.195312 21.195312 17.160156 24.160156 C 18.046875 24.683594 18.699219 25.5 19.007812 26.457031 C 19.308594 27.414062 19.246094 28.445312 18.824219 29.351562 C 18.402344 28.457031 17.695312 27.714844 16.808594 27.226562 C 16.753906 27.585938 16.65625 27.9375 16.511719 28.273438 C 16.460938 28.417969 16.363281 28.507812 16.261719 28.507812 L 14.65625 28.507812 C 14.660156 28.527344 14.660156 28.542969 14.660156 28.5625 L 14.660156 28.574219 C 14.664062 28.585938 14.664062 28.601562 14.660156 28.617188 C 14.683594 39.011719 21.171875 41.375 21.71875 41.550781 L 21.90625 41.550781 C 21.953125 40.734375 22.105469 39.605469 22.257812 38.503906 C 22.363281 37.746094 22.464844 37 22.527344 36.378906 L 23.40625 36.378906 C 23.6875 32.554688 23.976562 28.742188 24.265625 24.925781 L 24.265625 24.921875 C 24.632812 20.046875 25.003906 15.167969 25.355469 10.265625 L 2.375 10.265625 C 2.308594 10.28125 2.3125 10.382812 2.316406 10.488281 Z M 13.761719 16.015625 L 13.757812 16.015625 L 13.765625 16.015625 Z M 13.761719 16.015625 "/>
</g>
</svg>
